<svg width="104" height="16" viewBox="0 0 104 16" fill="none" xmlns="http://www.w3.org/2000/svg">
<path d="M2.44336 11H1.35938V3.99219C1.35938 3.53516 1.44141 3.15039 1.60547 2.83789C1.77344 2.52148 2.01367 2.2832 2.32617 2.12305C2.63867 1.95898 3.00977 1.87695 3.43945 1.87695C3.56445 1.87695 3.68945 1.88477 3.81445 1.90039C3.94336 1.91602 4.06836 1.93945 4.18945 1.9707L4.13086 2.85547C4.04883 2.83594 3.95508 2.82227 3.84961 2.81445C3.74805 2.80664 3.64648 2.80273 3.54492 2.80273C3.31445 2.80273 3.11523 2.84961 2.94727 2.94336C2.7832 3.0332 2.6582 3.16602 2.57227 3.3418C2.48633 3.51758 2.44336 3.73438 2.44336 3.99219V11ZM3.79102 4.66016V5.49219H0.357422V4.66016H3.79102ZM4.71094 7.90039V7.76562C4.71094 7.30859 4.77734 6.88477 4.91016 6.49414C5.04297 6.09961 5.23438 5.75781 5.48438 5.46875C5.73438 5.17578 6.03711 4.94922 6.39258 4.78906C6.74805 4.625 7.14648 4.54297 7.58789 4.54297C8.0332 4.54297 8.43359 4.625 8.78906 4.78906C9.14844 4.94922 9.45312 5.17578 9.70312 5.46875C9.95703 5.75781 10.1504 6.09961 10.2832 6.49414C10.416 6.88477 10.4824 7.30859 10.4824 7.76562V7.90039C10.4824 8.35742 10.416 8.78125 10.2832 9.17188C10.1504 9.5625 9.95703 9.9043 9.70312 10.1973C9.45312 10.4863 9.15039 10.7129 8.79492 10.877C8.44336 11.0371 8.04492 11.1172 7.59961 11.1172C7.1543 11.1172 6.75391 11.0371 6.39844 10.877C6.04297 10.7129 5.73828 10.4863 5.48438 10.1973C5.23438 9.9043 5.04297 9.5625 4.91016 9.17188C4.77734 8.78125 4.71094 8.35742 4.71094 7.90039ZM5.79492 7.76562V7.90039C5.79492 8.2168 5.83203 8.51562 5.90625 8.79688C5.98047 9.07422 6.0918 9.32031 6.24023 9.53516C6.39258 9.75 6.58203 9.91992 6.80859 10.0449C7.03516 10.166 7.29883 10.2266 7.59961 10.2266C7.89648 10.2266 8.15625 10.166 8.37891 10.0449C8.60547 9.91992 8.79297 9.75 8.94141 9.53516C9.08984 9.32031 9.20117 9.07422 9.27539 8.79688C9.35352 8.51562 9.39258 8.2168 9.39258 7.90039V7.76562C9.39258 7.45312 9.35352 7.1582 9.27539 6.88086C9.20117 6.59961 9.08789 6.35156 8.93555 6.13672C8.78711 5.91797 8.59961 5.74609 8.37305 5.62109C8.15039 5.49609 7.88867 5.43359 7.58789 5.43359C7.29102 5.43359 7.0293 5.49609 6.80273 5.62109C6.58008 5.74609 6.39258 5.91797 6.24023 6.13672C6.0918 6.35156 5.98047 6.59961 5.90625 6.88086C5.83203 7.1582 5.79492 7.45312 5.79492 7.76562ZM12.9258 5.65625V11H11.8418V4.66016H12.8965L12.9258 5.65625ZM14.9062 4.625L14.9004 5.63281C14.8105 5.61328 14.7246 5.60156 14.6426 5.59766C14.5645 5.58984 14.4746 5.58594 14.373 5.58594C14.123 5.58594 13.9023 5.625 13.7109 5.70312C13.5195 5.78125 13.3574 5.89062 13.2246 6.03125C13.0918 6.17188 12.9863 6.33984 12.9082 6.53516C12.834 6.72656 12.7852 6.9375 12.7617 7.16797L12.457 7.34375C12.457 6.96094 12.4941 6.60156 12.5684 6.26562C12.6465 5.92969 12.7656 5.63281 12.9258 5.375C13.0859 5.11328 13.2891 4.91016 13.5352 4.76562C13.7852 4.61719 14.082 4.54297 14.4258 4.54297C14.5039 4.54297 14.5938 4.55273 14.6953 4.57227C14.7969 4.58789 14.8672 4.60547 14.9062 4.625ZM16.9863 5.91992V11H15.8965V4.66016H16.9277L16.9863 5.91992ZM16.7637 7.58984L16.2598 7.57227C16.2637 7.13867 16.3203 6.73828 16.4297 6.37109C16.5391 6 16.7012 5.67773 16.916 5.4043C17.1309 5.13086 17.3984 4.91992 17.7188 4.77148C18.0391 4.61914 18.4102 4.54297 18.832 4.54297C19.1289 4.54297 19.4023 4.58594 19.6523 4.67188C19.9023 4.75391 20.1191 4.88477 20.3027 5.06445C20.4863 5.24414 20.6289 5.47461 20.7305 5.75586C20.832 6.03711 20.8828 6.37695 20.8828 6.77539V11H19.7988V6.82812C19.7988 6.49609 19.7422 6.23047 19.6289 6.03125C19.5195 5.83203 19.3633 5.6875 19.1602 5.59766C18.957 5.50391 18.7188 5.45703 18.4453 5.45703C18.125 5.45703 17.8574 5.51367 17.6426 5.62695C17.4277 5.74023 17.2559 5.89648 17.127 6.0957C16.998 6.29492 16.9043 6.52344 16.8457 6.78125C16.791 7.03516 16.7637 7.30469 16.7637 7.58984ZM20.8711 6.99219L20.1445 7.21484C20.1484 6.86719 20.2051 6.5332 20.3145 6.21289C20.4277 5.89258 20.5898 5.60742 20.8008 5.35742C21.0156 5.10742 21.2793 4.91016 21.5918 4.76562C21.9043 4.61719 22.2617 4.54297 22.6641 4.54297C23.0039 4.54297 23.3047 4.58789 23.5664 4.67773C23.832 4.76758 24.0547 4.90625 24.2344 5.09375C24.418 5.27734 24.5566 5.51367 24.6504 5.80273C24.7441 6.0918 24.791 6.43555 24.791 6.83398V11H23.7012V6.82227C23.7012 6.4668 23.6445 6.19141 23.5312 5.99609C23.4219 5.79688 23.2656 5.6582 23.0625 5.58008C22.8633 5.49805 22.625 5.45703 22.3477 5.45703C22.1094 5.45703 21.8984 5.49805 21.7148 5.58008C21.5312 5.66211 21.377 5.77539 21.252 5.91992C21.127 6.06055 21.0312 6.22266 20.9648 6.40625C20.9023 6.58984 20.8711 6.78516 20.8711 6.99219ZM29.0625 11.1172C28.6211 11.1172 28.2207 11.043 27.8613 10.8945C27.5059 10.7422 27.1992 10.5293 26.9414 10.2559C26.6875 9.98242 26.4922 9.6582 26.3555 9.2832C26.2188 8.9082 26.1504 8.49805 26.1504 8.05273V7.80664C26.1504 7.29102 26.2266 6.83203 26.3789 6.42969C26.5312 6.02344 26.7383 5.67969 27 5.39844C27.2617 5.11719 27.5586 4.9043 27.8906 4.75977C28.2227 4.61523 28.5664 4.54297 28.9219 4.54297C29.375 4.54297 29.7656 4.62109 30.0938 4.77734C30.4258 4.93359 30.6973 5.15234 30.9082 5.43359C31.1191 5.71094 31.2754 6.03906 31.377 6.41797C31.4785 6.79297 31.5293 7.20312 31.5293 7.64844V8.13477H26.7949V7.25H30.4453V7.16797C30.4297 6.88672 30.3711 6.61328 30.2695 6.34766C30.1719 6.08203 30.0156 5.86328 29.8008 5.69141C29.5859 5.51953 29.293 5.43359 28.9219 5.43359C28.6758 5.43359 28.4492 5.48633 28.2422 5.5918C28.0352 5.69336 27.8574 5.8457 27.709 6.04883C27.5605 6.25195 27.4453 6.5 27.3633 6.79297C27.2812 7.08594 27.2402 7.42383 27.2402 7.80664V8.05273C27.2402 8.35352 27.2812 8.63672 27.3633 8.90234C27.4492 9.16406 27.5723 9.39453 27.7324 9.59375C27.8965 9.79297 28.0938 9.94922 28.3242 10.0625C28.5586 10.1758 28.8242 10.2324 29.1211 10.2324C29.5039 10.2324 29.8281 10.1543 30.0938 9.99805C30.3594 9.8418 30.5918 9.63281 30.791 9.37109L31.4473 9.89258C31.3105 10.0996 31.1367 10.2969 30.9258 10.4844C30.7148 10.6719 30.4551 10.8242 30.1465 10.9414C29.8418 11.0586 29.4805 11.1172 29.0625 11.1172ZM33.8789 5.65625V11H32.7949V4.66016H33.8496L33.8789 5.65625ZM35.8594 4.625L35.8535 5.63281C35.7637 5.61328 35.6777 5.60156 35.5957 5.59766C35.5176 5.58984 35.4277 5.58594 35.3262 5.58594C35.0762 5.58594 34.8555 5.625 34.6641 5.70312C34.4727 5.78125 34.3105 5.89062 34.1777 6.03125C34.0449 6.17188 33.9395 6.33984 33.8613 6.53516C33.7871 6.72656 33.7383 6.9375 33.7148 7.16797L33.4102 7.34375C33.4102 6.96094 33.4473 6.60156 33.5215 6.26562C33.5996 5.92969 33.7188 5.63281 33.8789 5.375C34.0391 5.11328 34.2422 4.91016 34.4883 4.76562C34.7383 4.61719 35.0352 4.54297 35.3789 4.54297C35.457 4.54297 35.5469 4.55273 35.6484 4.57227C35.75 4.58789 35.8203 4.60547 35.8594 4.625ZM38.0391 2V11H36.9492V2H38.0391ZM41.5605 10.3438L43.3242 4.66016H44.4844L41.9414 11.9785C41.8828 12.1348 41.8047 12.3027 41.707 12.4824C41.6133 12.666 41.4922 12.8398 41.3438 13.0039C41.1953 13.168 41.0156 13.3008 40.8047 13.4023C40.5977 13.5078 40.3496 13.5605 40.0605 13.5605C39.9746 13.5605 39.8652 13.5488 39.7324 13.5254C39.5996 13.502 39.5059 13.4824 39.4512 13.4668L39.4453 12.5879C39.4766 12.5918 39.5254 12.5957 39.5918 12.5996C39.6621 12.6074 39.7109 12.6113 39.7383 12.6113C39.9844 12.6113 40.1934 12.5781 40.3652 12.5117C40.5371 12.4492 40.6816 12.3418 40.7988 12.1895C40.9199 12.041 41.0234 11.8359 41.1094 11.5742L41.5605 10.3438ZM40.2656 4.66016L41.9121 9.58203L42.1934 10.7246L41.4141 11.123L39.082 4.66016H40.2656ZM53.4844 2.46875H54.6094V8.24023C54.6094 8.88086 54.4668 9.41406 54.1816 9.83984C53.8965 10.2656 53.5176 10.5859 53.0449 10.8008C52.5762 11.0117 52.0664 11.1172 51.5156 11.1172C50.9375 11.1172 50.4141 11.0117 49.9453 10.8008C49.4805 10.5859 49.1113 10.2656 48.8379 9.83984C48.5684 9.41406 48.4336 8.88086 48.4336 8.24023V2.46875H49.5527V8.24023C49.5527 8.68555 49.6348 9.05273 49.7988 9.3418C49.9629 9.63086 50.1914 9.8457 50.4844 9.98633C50.7812 10.127 51.125 10.1973 51.5156 10.1973C51.9102 10.1973 52.2539 10.127 52.5469 9.98633C52.8438 9.8457 53.0742 9.63086 53.2383 9.3418C53.4023 9.05273 53.4844 8.68555 53.4844 8.24023V2.46875ZM59.9121 9.31836C59.9121 9.16211 59.877 9.01758 59.8066 8.88477C59.7402 8.74805 59.6016 8.625 59.3906 8.51562C59.1836 8.40234 58.8711 8.30469 58.4531 8.22266C58.1016 8.14844 57.7832 8.06055 57.498 7.95898C57.2168 7.85742 56.9766 7.73438 56.7773 7.58984C56.582 7.44531 56.4316 7.27539 56.3262 7.08008C56.2207 6.88477 56.168 6.65625 56.168 6.39453C56.168 6.14453 56.2227 5.9082 56.332 5.68555C56.4453 5.46289 56.6035 5.26562 56.8066 5.09375C57.0137 4.92188 57.2617 4.78711 57.5508 4.68945C57.8398 4.5918 58.1621 4.54297 58.5176 4.54297C59.0254 4.54297 59.459 4.63281 59.8184 4.8125C60.1777 4.99219 60.4531 5.23242 60.6445 5.5332C60.8359 5.83008 60.9316 6.16016 60.9316 6.52344H59.8477C59.8477 6.34766 59.7949 6.17773 59.6895 6.01367C59.5879 5.8457 59.4375 5.70703 59.2383 5.59766C59.043 5.48828 58.8027 5.43359 58.5176 5.43359C58.2168 5.43359 57.9727 5.48047 57.7852 5.57422C57.6016 5.66406 57.4668 5.7793 57.3809 5.91992C57.2988 6.06055 57.2578 6.20898 57.2578 6.36523C57.2578 6.48242 57.2773 6.58789 57.3164 6.68164C57.3594 6.77148 57.4336 6.85547 57.5391 6.93359C57.6445 7.00781 57.793 7.07812 57.9844 7.14453C58.1758 7.21094 58.4199 7.27734 58.7168 7.34375C59.2363 7.46094 59.6641 7.60156 60 7.76562C60.3359 7.92969 60.5859 8.13086 60.75 8.36914C60.9141 8.60742 60.9961 8.89648 60.9961 9.23633C60.9961 9.51367 60.9375 9.76758 60.8203 9.99805C60.707 10.2285 60.541 10.4277 60.3223 10.5957C60.1074 10.7598 59.8496 10.8887 59.5488 10.9824C59.252 11.0723 58.918 11.1172 58.5469 11.1172C57.9883 11.1172 57.5156 11.0176 57.1289 10.8184C56.7422 10.6191 56.4492 10.3613 56.25 10.0449C56.0508 9.72852 55.9512 9.39453 55.9512 9.04297H57.041C57.0566 9.33984 57.1426 9.57617 57.2988 9.75195C57.4551 9.92383 57.6465 10.0469 57.873 10.1211C58.0996 10.1914 58.3242 10.2266 58.5469 10.2266C58.8438 10.2266 59.0918 10.1875 59.291 10.1094C59.4941 10.0312 59.6484 9.92383 59.7539 9.78711C59.8594 9.65039 59.9121 9.49414 59.9121 9.31836ZM65.0508 11.1172C64.6094 11.1172 64.209 11.043 63.8496 10.8945C63.4941 10.7422 63.1875 10.5293 62.9297 10.2559C62.6758 9.98242 62.4805 9.6582 62.3438 9.2832C62.207 8.9082 62.1387 8.49805 62.1387 8.05273V7.80664C62.1387 7.29102 62.2148 6.83203 62.3672 6.42969C62.5195 6.02344 62.7266 5.67969 62.9883 5.39844C63.25 5.11719 63.5469 4.9043 63.8789 4.75977C64.2109 4.61523 64.5547 4.54297 64.9102 4.54297C65.3633 4.54297 65.7539 4.62109 66.082 4.77734C66.4141 4.93359 66.6855 5.15234 66.8965 5.43359C67.1074 5.71094 67.2637 6.03906 67.3652 6.41797C67.4668 6.79297 67.5176 7.20312 67.5176 7.64844V8.13477H62.7832V7.25H66.4336V7.16797C66.418 6.88672 66.3594 6.61328 66.2578 6.34766C66.1602 6.08203 66.0039 5.86328 65.7891 5.69141C65.5742 5.51953 65.2812 5.43359 64.9102 5.43359C64.6641 5.43359 64.4375 5.48633 64.2305 5.5918C64.0234 5.69336 63.8457 5.8457 63.6973 6.04883C63.5488 6.25195 63.4336 6.5 63.3516 6.79297C63.2695 7.08594 63.2285 7.42383 63.2285 7.80664V8.05273C63.2285 8.35352 63.2695 8.63672 63.3516 8.90234C63.4375 9.16406 63.5605 9.39453 63.7207 9.59375C63.8848 9.79297 64.082 9.94922 64.3125 10.0625C64.5469 10.1758 64.8125 10.2324 65.1094 10.2324C65.4922 10.2324 65.8164 10.1543 66.082 9.99805C66.3477 9.8418 66.5801 9.63281 66.7793 9.37109L67.4355 9.89258C67.2988 10.0996 67.125 10.2969 66.9141 10.4844C66.7031 10.6719 66.4434 10.8242 66.1348 10.9414C65.8301 11.0586 65.4688 11.1172 65.0508 11.1172ZM69.8672 5.65625V11H68.7832V4.66016H69.8379L69.8672 5.65625ZM71.8477 4.625L71.8418 5.63281C71.752 5.61328 71.666 5.60156 71.584 5.59766C71.5059 5.58984 71.416 5.58594 71.3145 5.58594C71.0645 5.58594 70.8438 5.625 70.6523 5.70312C70.4609 5.78125 70.2988 5.89062 70.166 6.03125C70.0332 6.17188 69.9277 6.33984 69.8496 6.53516C69.7754 6.72656 69.7266 6.9375 69.7031 7.16797L69.3984 7.34375C69.3984 6.96094 69.4355 6.60156 69.5098 6.26562C69.5879 5.92969 69.707 5.63281 69.8672 5.375C70.0273 5.11328 70.2305 4.91016 70.4766 4.76562C70.7266 4.61719 71.0234 4.54297 71.3672 4.54297C71.4453 4.54297 71.5352 4.55273 71.6367 4.57227C71.7383 4.58789 71.8086 4.60547 71.8477 4.625ZM78.1875 10.0801V11H73.9219V10.0801H78.1875ZM74.1445 2.46875V11H73.0137V2.46875H74.1445ZM81.9492 11.1172C81.5078 11.1172 81.1074 11.043 80.748 10.8945C80.3926 10.7422 80.0859 10.5293 79.8281 10.2559C79.5742 9.98242 79.3789 9.6582 79.2422 9.2832C79.1055 8.9082 79.0371 8.49805 79.0371 8.05273V7.80664C79.0371 7.29102 79.1133 6.83203 79.2656 6.42969C79.418 6.02344 79.625 5.67969 79.8867 5.39844C80.1484 5.11719 80.4453 4.9043 80.7773 4.75977C81.1094 4.61523 81.4531 4.54297 81.8086 4.54297C82.2617 4.54297 82.6523 4.62109 82.9805 4.77734C83.3125 4.93359 83.584 5.15234 83.7949 5.43359C84.0059 5.71094 84.1621 6.03906 84.2637 6.41797C84.3652 6.79297 84.416 7.20312 84.416 7.64844V8.13477H79.6816V7.25H83.332V7.16797C83.3164 6.88672 83.2578 6.61328 83.1562 6.34766C83.0586 6.08203 82.9023 5.86328 82.6875 5.69141C82.4727 5.51953 82.1797 5.43359 81.8086 5.43359C81.5625 5.43359 81.3359 5.48633 81.1289 5.5918C80.9219 5.69336 80.7441 5.8457 80.5957 6.04883C80.4473 6.25195 80.332 6.5 80.25 6.79297C80.168 7.08594 80.127 7.42383 80.127 7.80664V8.05273C80.127 8.35352 80.168 8.63672 80.25 8.90234C80.3359 9.16406 80.459 9.39453 80.6191 9.59375C80.7832 9.79297 80.9805 9.94922 81.2109 10.0625C81.4453 10.1758 81.7109 10.2324 82.0078 10.2324C82.3906 10.2324 82.7148 10.1543 82.9805 9.99805C83.2461 9.8418 83.4785 9.63281 83.6777 9.37109L84.334 9.89258C84.1973 10.0996 84.0234 10.2969 83.8125 10.4844C83.6016 10.6719 83.3418 10.8242 83.0332 10.9414C82.7285 11.0586 82.3672 11.1172 81.9492 11.1172ZM89.4199 9.91602V6.65234C89.4199 6.40234 89.3691 6.18555 89.2676 6.00195C89.1699 5.81445 89.0215 5.66992 88.8223 5.56836C88.623 5.4668 88.377 5.41602 88.084 5.41602C87.8105 5.41602 87.5703 5.46289 87.3633 5.55664C87.1602 5.65039 87 5.77344 86.8828 5.92578C86.7695 6.07812 86.7129 6.24219 86.7129 6.41797H85.6289C85.6289 6.19141 85.6875 5.9668 85.8047 5.74414C85.9219 5.52148 86.0898 5.32031 86.3086 5.14062C86.5312 4.95703 86.7969 4.8125 87.1055 4.70703C87.418 4.59766 87.7656 4.54297 88.1484 4.54297C88.6094 4.54297 89.0156 4.62109 89.3672 4.77734C89.7227 4.93359 90 5.16992 90.1992 5.48633C90.4023 5.79883 90.5039 6.19141 90.5039 6.66406V9.61719C90.5039 9.82812 90.5215 10.0527 90.5566 10.291C90.5957 10.5293 90.6523 10.7344 90.7266 10.9062V11H89.5957C89.541 10.875 89.498 10.709 89.4668 10.502C89.4355 10.291 89.4199 10.0957 89.4199 9.91602ZM89.6074 7.15625L89.6191 7.91797H88.5234C88.2148 7.91797 87.9395 7.94336 87.6973 7.99414C87.4551 8.04102 87.252 8.11328 87.0879 8.21094C86.9238 8.30859 86.7988 8.43164 86.7129 8.58008C86.627 8.72461 86.584 8.89453 86.584 9.08984C86.584 9.28906 86.6289 9.4707 86.7188 9.63477C86.8086 9.79883 86.9434 9.92969 87.123 10.0273C87.3066 10.1211 87.5312 10.168 87.7969 10.168C88.1289 10.168 88.4219 10.0977 88.6758 9.95703C88.9297 9.81641 89.1309 9.64453 89.2793 9.44141C89.4316 9.23828 89.5137 9.04102 89.5254 8.84961L89.9883 9.37109C89.9609 9.53516 89.8867 9.7168 89.7656 9.91602C89.6445 10.1152 89.4824 10.3066 89.2793 10.4902C89.0801 10.6699 88.8418 10.8203 88.5645 10.9414C88.291 11.0586 87.9824 11.1172 87.6387 11.1172C87.209 11.1172 86.832 11.0332 86.5078 10.8652C86.1875 10.6973 85.9375 10.4727 85.7578 10.1914C85.582 9.90625 85.4941 9.58789 85.4941 9.23633C85.4941 8.89648 85.5605 8.59766 85.6934 8.33984C85.8262 8.07812 86.0176 7.86133 86.2676 7.68945C86.5176 7.51367 86.8184 7.38086 87.1699 7.29102C87.5215 7.20117 87.9141 7.15625 88.3477 7.15625H89.6074ZM93.293 5.87891V13.4375H92.2031V4.66016H93.1992L93.293 5.87891ZM97.5645 7.77734V7.90039C97.5645 8.36133 97.5098 8.78906 97.4004 9.18359C97.291 9.57422 97.1309 9.91406 96.9199 10.2031C96.7129 10.4922 96.457 10.7168 96.1523 10.877C95.8477 11.0371 95.498 11.1172 95.1035 11.1172C94.7012 11.1172 94.3457 11.0508 94.0371 10.918C93.7285 10.7852 93.4668 10.5918 93.252 10.3379C93.0371 10.084 92.8652 9.7793 92.7363 9.42383C92.6113 9.06836 92.5254 8.66797 92.4785 8.22266V7.56641C92.5254 7.09766 92.6133 6.67773 92.7422 6.30664C92.8711 5.93555 93.041 5.61914 93.252 5.35742C93.4668 5.0918 93.7266 4.89062 94.0312 4.75391C94.3359 4.61328 94.6875 4.54297 95.0859 4.54297C95.4844 4.54297 95.8379 4.62109 96.1465 4.77734C96.4551 4.92969 96.7148 5.14844 96.9258 5.43359C97.1367 5.71875 97.2949 6.06055 97.4004 6.45898C97.5098 6.85352 97.5645 7.29297 97.5645 7.77734ZM96.4746 7.90039V7.77734C96.4746 7.46094 96.4414 7.16406 96.375 6.88672C96.3086 6.60547 96.2051 6.35938 96.0645 6.14844C95.9277 5.93359 95.752 5.76562 95.5371 5.64453C95.3223 5.51953 95.0664 5.45703 94.7695 5.45703C94.4961 5.45703 94.2578 5.50391 94.0547 5.59766C93.8555 5.69141 93.6855 5.81836 93.5449 5.97852C93.4043 6.13477 93.2891 6.31445 93.1992 6.51758C93.1133 6.7168 93.0488 6.92383 93.0059 7.13867V8.65625C93.084 8.92969 93.1934 9.1875 93.334 9.42969C93.4746 9.66797 93.6621 9.86133 93.8965 10.0098C94.1309 10.1543 94.4258 10.2266 94.7812 10.2266C95.0742 10.2266 95.3262 10.166 95.5371 10.0449C95.752 9.91992 95.9277 9.75 96.0645 9.53516C96.2051 9.32031 96.3086 9.07422 96.375 8.79688C96.4414 8.51562 96.4746 8.2168 96.4746 7.90039Z" fill="black"/>
</svg>
