<svg width="85" height="12" viewBox="0 0 85 12" fill="none" xmlns="http://www.w3.org/2000/svg">
<path d="M6.45996 8.48438C6.45996 8.25195 6.4235 8.04688 6.35059 7.86914C6.28223 7.68685 6.15918 7.52279 5.98145 7.37695C5.80827 7.23112 5.56673 7.09212 5.25684 6.95996C4.9515 6.8278 4.56413 6.69336 4.09473 6.55664C3.60254 6.41081 3.1582 6.24902 2.76172 6.07129C2.36523 5.889 2.02572 5.68164 1.74316 5.44922C1.46061 5.2168 1.24414 4.9502 1.09375 4.64941C0.943359 4.34863 0.868164 4.00456 0.868164 3.61719C0.868164 3.22982 0.947917 2.87207 1.10742 2.54395C1.26693 2.21582 1.49479 1.93099 1.79102 1.68945C2.0918 1.44336 2.44954 1.25195 2.86426 1.11523C3.27897 0.978516 3.74154 0.910156 4.25195 0.910156C4.99935 0.910156 5.63281 1.05371 6.15234 1.34082C6.67643 1.62337 7.0752 1.99479 7.34863 2.45508C7.62207 2.91081 7.75879 3.39844 7.75879 3.91797H6.44629C6.44629 3.54427 6.36654 3.21387 6.20703 2.92676C6.04753 2.63509 5.80599 2.40723 5.48242 2.24316C5.15885 2.07454 4.7487 1.99023 4.25195 1.99023C3.78255 1.99023 3.39518 2.06087 3.08984 2.20215C2.78451 2.34342 2.55664 2.53483 2.40625 2.77637C2.26042 3.0179 2.1875 3.29362 2.1875 3.60352C2.1875 3.81315 2.23079 4.00456 2.31738 4.17773C2.40853 4.34635 2.54753 4.50358 2.73438 4.64941C2.92578 4.79525 3.16732 4.92969 3.45898 5.05273C3.75521 5.17578 4.1084 5.29427 4.51855 5.4082C5.08366 5.56771 5.57129 5.74544 5.98145 5.94141C6.3916 6.13737 6.72884 6.3584 6.99316 6.60449C7.26204 6.84603 7.46029 7.12174 7.58789 7.43164C7.72005 7.73698 7.78613 8.08333 7.78613 8.4707C7.78613 8.8763 7.7041 9.24316 7.54004 9.57129C7.37598 9.89941 7.14128 10.1797 6.83594 10.4121C6.5306 10.6445 6.16374 10.8245 5.73535 10.9521C5.31152 11.0752 4.83757 11.1367 4.31348 11.1367C3.85319 11.1367 3.39974 11.0729 2.95312 10.9453C2.51107 10.8177 2.10775 10.6263 1.74316 10.3711C1.38314 10.1159 1.09375 9.80143 0.875 9.42773C0.660807 9.04948 0.553711 8.61198 0.553711 8.11523H1.86621C1.86621 8.45703 1.93229 8.75098 2.06445 8.99707C2.19661 9.23861 2.37663 9.43913 2.60449 9.59863C2.83691 9.75814 3.09896 9.87663 3.39062 9.9541C3.68685 10.027 3.99447 10.0635 4.31348 10.0635C4.77376 10.0635 5.16341 9.99967 5.48242 9.87207C5.80143 9.74447 6.04297 9.56217 6.20703 9.3252C6.37565 9.08822 6.45996 8.80794 6.45996 8.48438ZM18.5309 5.70898V6.33789C18.5309 7.08529 18.4374 7.75521 18.2506 8.34766C18.0637 8.9401 17.7949 9.44368 17.4439 9.8584C17.093 10.2731 16.6715 10.5898 16.1793 10.8086C15.6917 11.0273 15.1448 11.1367 14.5387 11.1367C13.9508 11.1367 13.4107 11.0273 12.9186 10.8086C12.4309 10.5898 12.0071 10.2731 11.6471 9.8584C11.2916 9.44368 11.0159 8.9401 10.8199 8.34766C10.624 7.75521 10.526 7.08529 10.526 6.33789V5.70898C10.526 4.96159 10.6217 4.29395 10.8131 3.70605C11.009 3.11361 11.2848 2.61003 11.6402 2.19531C11.9957 1.77604 12.4173 1.45703 12.9049 1.23828C13.3971 1.01953 13.9371 0.910156 14.525 0.910156C15.1311 0.910156 15.678 1.01953 16.1656 1.23828C16.6578 1.45703 17.0794 1.77604 17.4303 2.19531C17.7857 2.61003 18.0569 3.11361 18.2437 3.70605C18.4352 4.29395 18.5309 4.96159 18.5309 5.70898ZM17.2252 6.33789V5.69531C17.2252 5.10286 17.1637 4.57878 17.0406 4.12305C16.9221 3.66732 16.7467 3.28451 16.5143 2.97461C16.2818 2.66471 15.997 2.43001 15.6598 2.27051C15.3271 2.111 14.9488 2.03125 14.525 2.03125C14.1148 2.03125 13.7434 2.111 13.4107 2.27051C13.0826 2.43001 12.8001 2.66471 12.5631 2.97461C12.3307 3.28451 12.1507 3.66732 12.023 4.12305C11.8954 4.57878 11.8316 5.10286 11.8316 5.69531V6.33789C11.8316 6.9349 11.8954 7.46354 12.023 7.92383C12.1507 8.37956 12.3329 8.76465 12.5699 9.0791C12.8115 9.389 13.0963 9.6237 13.4244 9.7832C13.7571 9.94271 14.1285 10.0225 14.5387 10.0225C14.9671 10.0225 15.3476 9.94271 15.6803 9.7832C16.013 9.6237 16.2932 9.389 16.5211 9.0791C16.7535 8.76465 16.929 8.37956 17.0475 7.92383C17.166 7.46354 17.2252 6.9349 17.2252 6.33789ZM27.9426 9.92676V11H22.966V9.92676H27.9426ZM23.2258 1.04688V11H21.9064V1.04688H23.2258ZM36.1785 1.04688H37.491V7.78027C37.491 8.52767 37.3247 9.14974 36.992 9.64648C36.6593 10.1432 36.2173 10.5169 35.6658 10.7676C35.1189 11.0137 34.5242 11.1367 33.8816 11.1367C33.2072 11.1367 32.5965 11.0137 32.0496 10.7676C31.5073 10.5169 31.0766 10.1432 30.7576 9.64648C30.4432 9.14974 30.2859 8.52767 30.2859 7.78027V1.04688H31.5916V7.78027C31.5916 8.2998 31.6873 8.72819 31.8787 9.06543C32.0701 9.40267 32.3367 9.65332 32.6785 9.81738C33.0249 9.98145 33.4259 10.0635 33.8816 10.0635C34.3419 10.0635 34.743 9.98145 35.0848 9.81738C35.4311 9.65332 35.7 9.40267 35.8914 9.06543C36.0828 8.72819 36.1785 8.2998 36.1785 7.78027V1.04688ZM44.64 1.04688V11H43.3412V1.04688H44.64ZM47.8393 1.04688V2.12695H40.1488V1.04688H47.8393ZM52.1309 1.04688V11H50.8115V1.04688H52.1309ZM63.5934 5.70898V6.33789C63.5934 7.08529 63.4999 7.75521 63.3131 8.34766C63.1262 8.9401 62.8574 9.44368 62.5064 9.8584C62.1555 10.2731 61.734 10.5898 61.2418 10.8086C60.7542 11.0273 60.2073 11.1367 59.6012 11.1367C59.0133 11.1367 58.4732 11.0273 57.9811 10.8086C57.4934 10.5898 57.0696 10.2731 56.7096 9.8584C56.3541 9.44368 56.0784 8.9401 55.8824 8.34766C55.6865 7.75521 55.5885 7.08529 55.5885 6.33789V5.70898C55.5885 4.96159 55.6842 4.29395 55.8756 3.70605C56.0716 3.11361 56.3473 2.61003 56.7027 2.19531C57.0582 1.77604 57.4798 1.45703 57.9674 1.23828C58.4596 1.01953 58.9996 0.910156 59.5875 0.910156C60.1936 0.910156 60.7405 1.01953 61.2281 1.23828C61.7203 1.45703 62.1419 1.77604 62.4928 2.19531C62.8482 2.61003 63.1194 3.11361 63.3063 3.70605C63.4977 4.29395 63.5934 4.96159 63.5934 5.70898ZM62.2877 6.33789V5.69531C62.2877 5.10286 62.2262 4.57878 62.1031 4.12305C61.9846 3.66732 61.8092 3.28451 61.5768 2.97461C61.3443 2.66471 61.0595 2.43001 60.7223 2.27051C60.3896 2.111 60.0113 2.03125 59.5875 2.03125C59.1773 2.03125 58.8059 2.111 58.4732 2.27051C58.1451 2.43001 57.8626 2.66471 57.6256 2.97461C57.3932 3.28451 57.2132 3.66732 57.0855 4.12305C56.9579 4.57878 56.8941 5.10286 56.8941 5.69531V6.33789C56.8941 6.9349 56.9579 7.46354 57.0855 7.92383C57.2132 8.37956 57.3954 8.76465 57.6324 9.0791C57.874 9.389 58.1588 9.6237 58.4869 9.7832C58.8196 9.94271 59.191 10.0225 59.6012 10.0225C60.0296 10.0225 60.4101 9.94271 60.7428 9.7832C61.0755 9.6237 61.3557 9.389 61.5836 9.0791C61.816 8.76465 61.9915 8.37956 62.11 7.92383C62.2285 7.46354 62.2877 6.9349 62.2877 6.33789ZM74.6252 1.04688V11H73.299L68.2883 3.32324V11H66.9689V1.04688H68.2883L73.3195 8.74414V1.04688H74.6252ZM83.6678 8.48438C83.6678 8.25195 83.6313 8.04688 83.5584 7.86914C83.49 7.68685 83.367 7.52279 83.1893 7.37695C83.0161 7.23112 82.7745 7.09212 82.4646 6.95996C82.1593 6.8278 81.7719 6.69336 81.3025 6.55664C80.8103 6.41081 80.366 6.24902 79.9695 6.07129C79.573 5.889 79.2335 5.68164 78.951 5.44922C78.6684 5.2168 78.452 4.9502 78.3016 4.64941C78.1512 4.34863 78.076 4.00456 78.076 3.61719C78.076 3.22982 78.1557 2.87207 78.3152 2.54395C78.4747 2.21582 78.7026 1.93099 78.9988 1.68945C79.2996 1.44336 79.6574 1.25195 80.0721 1.11523C80.4868 0.978516 80.9493 0.910156 81.4598 0.910156C82.2072 0.910156 82.8406 1.05371 83.3602 1.34082C83.8842 1.62337 84.283 1.99479 84.5564 2.45508C84.8299 2.91081 84.9666 3.39844 84.9666 3.91797H83.6541C83.6541 3.54427 83.5743 3.21387 83.4148 2.92676C83.2553 2.63509 83.0138 2.40723 82.6902 2.24316C82.3667 2.07454 81.9565 1.99023 81.4598 1.99023C80.9904 1.99023 80.603 2.06087 80.2977 2.20215C79.9923 2.34342 79.7645 2.53483 79.6141 2.77637C79.4682 3.0179 79.3953 3.29362 79.3953 3.60352C79.3953 3.81315 79.4386 4.00456 79.5252 4.17773C79.6163 4.34635 79.7553 4.50358 79.9422 4.64941C80.1336 4.79525 80.3751 4.92969 80.6668 5.05273C80.963 5.17578 81.3162 5.29427 81.7264 5.4082C82.2915 5.56771 82.7791 5.74544 83.1893 5.94141C83.5994 6.13737 83.9367 6.3584 84.201 6.60449C84.4699 6.84603 84.6681 7.12174 84.7957 7.43164C84.9279 7.73698 84.9939 8.08333 84.9939 8.4707C84.9939 8.8763 84.9119 9.24316 84.7478 9.57129C84.5838 9.89941 84.3491 10.1797 84.0437 10.4121C83.7384 10.6445 83.3715 10.8245 82.9432 10.9521C82.5193 11.0752 82.0454 11.1367 81.5213 11.1367C81.061 11.1367 80.6075 11.0729 80.1609 10.9453C79.7189 10.8177 79.3156 10.6263 78.951 10.3711C78.5909 10.1159 78.3016 9.80143 78.0828 9.42773C77.8686 9.04948 77.7615 8.61198 77.7615 8.11523H79.074C79.074 8.45703 79.1401 8.75098 79.2723 8.99707C79.4044 9.23861 79.5844 9.43913 79.8123 9.59863C80.0447 9.75814 80.3068 9.87663 80.5984 9.9541C80.8947 10.027 81.2023 10.0635 81.5213 10.0635C81.9816 10.0635 82.3712 9.99967 82.6902 9.87207C83.0092 9.74447 83.2508 9.56217 83.4148 9.3252C83.5835 9.08822 83.6678 8.80794 83.6678 8.48438Z" fill="#6A7981"/>
</svg>
